<?xml version="1.0" standalone="no"?><!DOCTYPE svg PUBLIC "-//W3C//DTD SVG 1.1//EN" "http://www.w3.org/Graphics/SVG/1.1/DTD/svg11.dtd"><svg class="icon" width="200px" height="200.00px" viewBox="0 0 1024 1024" version="1.1" xmlns="http://www.w3.org/2000/svg"><path fill="#d81e06" d="M512 160a32 32 0 0 1 32 32v32l-0.064 1.76a288.064 288.064 0 0 1 255.936 277.76L800 512v160h32a32 32 0 0 1 0 64h-192a128 128 0 0 1-255.84 6.4L384 736H192a32 32 0 0 1 0-64h32v-160a288.032 288.032 0 0 1 256.096-286.24A11.136 11.136 0 0 1 480 224V192a32 32 0 0 1 32-32z m64 576h-128a64 64 0 0 0 127.84 4.8L576 736zM512 288a224 224 0 0 0-223.872 216.32L288 512v160h448v-160a224 224 0 0 0-224-224z" /></svg>