<?xml version="1.0" standalone="no"?><!DOCTYPE svg PUBLIC "-//W3C//DTD SVG 1.1//EN" "http://www.w3.org/Graphics/SVG/1.1/DTD/svg11.dtd"><svg t="1649332175915" class="icon" viewBox="0 0 1024 1024" version="1.1" xmlns="http://www.w3.org/2000/svg" p-id="1267" xmlns:xlink="http://www.w3.org/1999/xlink" width="200" height="200"><defs><style type="text/css"></style></defs><path d="M546.133333 494.933333m-28.444444 0a28.444444 28.444444 0 1 0 56.888889 0 28.444444 28.444444 0 1 0-56.888889 0Z" fill="#d81e06" p-id="1268"></path><path d="M844.8 527.644444c-5.688889 0-12.8-1.422222-17.066667-5.688888L546.133333 305.777778 264.533333 521.955556c-12.8 9.955556-29.866667 7.111111-39.822222-5.688889-9.955556-12.8-7.111111-29.866667 5.688889-39.822223l298.666667-230.4c9.955556-8.533333 24.177778-8.533333 34.133333 0l298.666667 230.4c12.8 9.955556 14.222222 27.022222 5.688889 39.822223-5.688889 7.111111-14.222222 11.377778-22.755556 11.377777zM763.733333 871.822222H612.977778c-15.644444 0-28.444444-12.8-28.444445-28.444444v-140.8c0-21.333333-17.066667-38.4-38.4-38.4-21.333333 0-38.4 17.066667-38.4 38.4v140.8c0 15.644444-12.8 28.444444-28.444444 28.444444H329.955556c-15.644444 0-28.444444-12.8-28.444445-28.444444v-270.222222c0-15.644444 12.8-28.444444 28.444445-28.444445s28.444444 12.8 28.444444 28.444445v243.2h93.866667v-112.355556a95.288889 95.288889 0 0 1 190.577777 0v112.355556h93.866667V573.155556c0-15.644444 12.8-28.444444 28.444445-28.444445s28.444444 12.8 28.444444 28.444445v271.644444c-1.422222 15.644444-14.222222 27.022222-29.866667 27.022222z" fill="#d81e06" p-id="1269"></path></svg>