<?xml version="1.0" standalone="no"?><!DOCTYPE svg PUBLIC "-//W3C//DTD SVG 1.1//EN" "http://www.w3.org/Graphics/SVG/1.1/DTD/svg11.dtd"><svg t="1647402842892" class="icon" viewBox="0 0 1024 1024" version="1.1" xmlns="http://www.w3.org/2000/svg" p-id="2584" xmlns:xlink="http://www.w3.org/1999/xlink" width="200" height="200"><defs><style type="text/css"></style></defs><path d="M728.64 577.67a25.92 25.92 0 0 0-12.89-15.52c-2.93-3.53-5.78-7-8.45-10.2 93.14-102.54 90.44-275.69 7.75-388-97.19-132-274.55-133.19-366.92-3.75C290.45 222 257 308.7 269.75 388.8c9.24 58.07 32.18 127.4 75.58 172.94-36.54 77.4-94.83 143.81-137.62 217.8-19.06 33-51.87 83.41-35.8 123.93 35.5 89.57 250 47.27 315.51 41.71 88.27-7.5 174.73-17.66 262.06-32.56 34.43-5.87 76.15-8.32 94.25-42.15 47.89-89.47-51.15-215.58-115.09-292.8z m-233.87 208c-3.66 36.19-9.83 72.49-6.76 108.68q-23.45 1.86-46.76 3.58c-52.48 4-106.86 6.74-159.44 3.77-67.53-3.82-54.18-45.64-31.14-97.1 29.85-66.66 78-132.93 103.56-203.15 5 26 5.13 59.14 11.11 87.33-17 38.38-49.11 71.73-78.21 101.64-18.12 18.62-45.61 43-44.2 71.45 0.29 5.82 9 5.89 9.1 0 0.57-35.41 40.73-63.07 61.88-87.89 10.14-11.91 19.88-24.46 29.37-36.91a260.72 260.72 0 0 0 17.57-25.43c4.54-7.7 3.52-12.42 4-16.24-0.2 1.72 1.3 2.66 2.82 2.74 5.49 19.77 14.78 36.17 32.34 44.29 34.58 16 71.11-2.51 98.27-31.64a713.34 713.34 0 0 1-3.51 74.92z m-133-207.07c0.12-0.41 0.29-0.81 0.41-1.22a153.07 153.07 0 0 0 27 17.6c31.26 15.8 67.92 26.82 105.41 31.31-2.14 43.17-60.29 117.05-99.72 71.7-10.08-11.59-10.78-41.08-13.59-55.38-4.28-21.73-6.44-45.77-19.47-63.97z m44.09-34.2a140.9 140.9 0 0 1-14.46-9.81c14.18-25 26.69-50.69 35.31-78.65 1.4-4.54-5.69-6.48-7.11-2-8.41 26.89-20.67 51.32-34.55 75.13A168.46 168.46 0 0 1 357 497.86c30.66-38.35 57.58-79.88 79-124 2.34-4.82-4.81-9.07-7.24-4.23-21.51 42.91-48.64 81.14-78.11 118.47a243.13 243.13 0 0 1-16.01-31.1c10.81-13.52 16-30.2 23.8-46.53 13.87-29.17 31.45-56.32 49.51-83 2.72-4-3.76-7.74-6.49-3.79-15.55 22.55-30.71 45.38-43.59 69.59-9.28 17.44-15.56 37.81-27 54.11a384.72 384.72 0 0 1-16.59-55.2 192.62 192.62 0 0 1-3-19.31c11.24-30.45 42.29-52.7 62.45-77 24-28.94 45.51-59.87 70.32-88.19 2.8-3.2-1.84-7.91-4.7-4.7-31.88 35.83-58.39 76.24-92 110.53-13.52 13.8-27.67 27-37.23 42.84-1.89-52.87 15.94-107.75 47.16-153.71a17.38 17.38 0 0 0 9.72-7.14c75.56-113 234.55-107.43 310 1.55 78.64 113.56 68.79 296.2-66.77 362.29-61.04 29.78-146.88 19.01-204.33-14.9zM670 590.32c-10 24.39-13.7 51.89-31.77 72.84-23.34 27.06-57.87 41.9-80.06 6.91-7.85-12.37-12.34-27.34-16.14-41.73 33.74-1.21 66.61-8.31 95.23-22.78a246.11 246.11 0 0 0 30.37-18.34c0.72 0.96 1.63 2.11 2.37 3.1z m119.3 259.33c-9.41 12.2-126.28 23.89-150 27.78-27.72 4.56-55.88 7.92-84.12 10.83a29.23 29.23 0 0 0-12.18-21.9c-4.33-40.72 4.93-91.17 3.86-136.12a76.1 76.1 0 0 0 47.55 18.26c65.54 2 90.5-58.08 112.95-110.84C760.19 704.89 828 799.45 789.3 849.65z" fill="#333333" p-id="2585"></path><path d="M383.91 739.39c-28.26 36.32-64.15 68.21-82.17 111.4-1.2 2.88 1.75 5.34 4.24 5.57l6.24 0.57c4.73 0.43 5.9-7.73 1.13-8.37l-0.79-0.11c18.75-39.74 50.08-70.37 76.45-105.12 2.22-2.91-2.83-6.86-5.1-3.94zM363.25 860.68l-8.83 27.86c-1.64 5.18 6.32 7.27 8.08 2.23l9.67-27.63c1.96-5.6-7.11-8.14-8.92-2.46z" fill="#333333" p-id="2586"></path></svg>