<?xml version="1.0" standalone="no"?><!DOCTYPE svg PUBLIC "-//W3C//DTD SVG 1.1//EN" "http://www.w3.org/Graphics/SVG/1.1/DTD/svg11.dtd"><svg t="1647215010845" class="icon" viewBox="0 0 1024 1024" version="1.1" xmlns="http://www.w3.org/2000/svg" p-id="10044" xmlns:xlink="http://www.w3.org/1999/xlink" width="200" height="200"><defs><style type="text/css"></style></defs><path d="M512 1024c-56.096-89.344-97.184-137.728-123.296-145.184C201.216 825.248 64 652.672 64 448 64 200.576 264.576 0 512 0s448 200.576 448 448c0 203.168-135.232 374.72-320.608 429.632-26.88 7.968-69.376 56.768-127.392 146.368zM236.032 180.544A64 64 0 0 0 192 241.344v344.64a32 32 0 0 0 42.08 30.4c42.592-14.112 76-21.184 100.16-21.184 31.584 0 79.008 12.096 142.208 36.256v-435.2C413.248 172.096 365.824 160 334.208 160c-23.776 0-56.512 6.848-98.176 20.544z m-22.464 456.032a32 32 0 0 0-21.568 30.24v7.328a21.12 21.12 0 0 0 27.872 20c49.472-16.64 87.584-24.96 114.336-24.96 26.784 0 64.896 8.32 114.368 24.96a21.12 21.12 0 0 0 27.84-20v-7.328a32 32 0 0 0-21.536-30.24c-52.544-18.112-92.768-27.168-120.64-27.168-27.904 0-68.16 9.056-120.64 27.168z m355.552 0a32 32 0 0 0-21.568 30.24v7.328a21.12 21.12 0 0 0 27.872 20c49.472-16.64 87.584-24.96 114.368-24.96 26.752 0 64.864 8.32 114.336 24.96a21.12 21.12 0 0 0 27.872-20v-7.328a32 32 0 0 0-21.568-30.24c-52.544-18.112-92.768-27.168-120.64-27.168-27.904 0-68.16 9.056-120.64 27.168z m-21.568-440.32v435.2c63.2-24.16 110.624-36.256 142.24-36.256 24.128 0 57.536 7.04 100.16 21.184a32 32 0 0 0 42.048-30.4V241.376a64 64 0 0 0-44.032-60.8C746.304 166.848 713.6 160 689.792 160c-31.616 0-79.04 12.096-142.24 36.256zM512 704c19.648 0 35.552-113.664 35.552-253.856 0-140.224-15.904-253.888-35.552-253.888s-35.552 113.664-35.552 253.888c0 140.192 15.904 253.856 35.552 253.856z" p-id="10045"></path></svg>