<?xml version="1.0" standalone="no"?><!DOCTYPE svg PUBLIC "-//W3C//DTD SVG 1.1//EN" "http://www.w3.org/Graphics/SVG/1.1/DTD/svg11.dtd"><svg t="1647215019075" class="icon" viewBox="0 0 1024 1024" version="1.1" xmlns="http://www.w3.org/2000/svg" p-id="10311" xmlns:xlink="http://www.w3.org/1999/xlink" width="200" height="200"><defs><style type="text/css"></style></defs><path d="M542.72 378.88v78.58176a71.68 71.68 0 0 1 0 129.55648v78.94016c3.8912 0 7.84384 0.73728 11.65312 2.29376 58.90048 24.13568 90.4192 69.29408 90.4192 130.63168l0.02048 1.41312c0.9728 24.91392 27.71968 39.81312 94.8736 40.98048l7.7824 0.07168a30.72 30.72 0 0 1-0.1024 61.44c-103.59808-0.17408-164.01408-33.34144-164.01408-103.90528l-0.04096-3.05152C582.52288 765.6448 569.856 744.89856 542.72 730.5216V911.36h-61.44V730.5216c-27.136 14.37696-39.79264 35.13344-40.58112 65.31072l-0.04096 3.05152c0 70.56384-60.416 103.7312-164.00384 103.90528a30.72 30.72 0 0 1-0.1024-61.44l7.77216-0.07168c67.15392-1.16736 93.9008-16.0768 94.86336-40.98048l0.03072-1.41312c0-61.3376 31.51872-106.496 90.4192-130.63168A30.62784 30.62784 0 0 1 481.28 665.9584v-78.94016a71.68 71.68 0 0 1 0-129.55648V378.88h61.44z m-30.72 112.64a30.72 30.72 0 1 0 0 61.44 30.72 30.72 0 0 0 0-61.44z m0-378.88c254.49472 0 460.8 59.5968 460.8 133.12S766.49472 378.88 512 378.88 51.2 319.2832 51.2 245.76c0-72.78592 202.19904-131.92192 453.18144-133.09952L512 112.64z m0 61.44c-118.43584 0-228.88448 13.49632-308.7872 36.57728l-9.25696 2.7648c-30.23872 9.3184-53.98528 19.6096-69.61152 29.73696l-2.28352 1.51552-1.55648 1.08544 1.55648 1.08544c16.2816 11.12064 42.50624 22.50752 76.47232 32.64512l4.67968 1.37216C283.11552 303.94368 393.56416 317.44 512 317.44c118.43584 0 228.88448-13.49632 308.7872-36.57728l9.25696-2.7648c30.23872-9.3184 53.98528-19.6096 69.61152-29.73696l2.28352-1.51552 1.54624-1.08544-1.54624-1.08544c-16.2816-11.12064-42.50624-22.50752-76.47232-32.64512l-4.67968-1.37216C740.88448 187.57632 630.43584 174.08 512 174.08z" fill="#050505" p-id="10312"></path></svg>