<?xml version="1.0" standalone="no"?><!DOCTYPE svg PUBLIC "-//W3C//DTD SVG 1.1//EN" "http://www.w3.org/Graphics/SVG/1.1/DTD/svg11.dtd"><svg t="1647216007401" class="icon" viewBox="0 0 1024 1024" version="1.1" xmlns="http://www.w3.org/2000/svg" p-id="15720" xmlns:xlink="http://www.w3.org/1999/xlink" width="200" height="200"><defs><style type="text/css"></style></defs><path d="M517.22 565.34a217.84 217.84 0 1 1 154-63.8 216.43 216.43 0 0 1-154 63.8z m0-407.35c-104.49 0-189.51 85-189.51 189.5S412.73 537 517.22 537s189.51-85 189.51-189.51S621.71 158 517.22 158z" p-id="15721"></path><path d="M143.42 897.81a15.53 15.53 0 0 1-1.66-0.09A14.17 14.17 0 0 1 129.33 882a390.62 390.62 0 0 1 387.89-344.78 14.18 14.18 0 0 1 0 28.35c-183.8 0-338.45 137.45-359.74 319.71a14.17 14.17 0 0 1-14.06 12.53z" p-id="15722"></path><path d="M680.78 891.88m0-15l0-224.77q0-15 15-15l0 0q15 0 15 15l0 224.77q0 15-15 15l0 0q-15 0-15-15Z" p-id="15723"></path><path d="M568.39 749.5m15 0l224.77 0q15 0 15 15l0 0q0 15-15 15l-224.77 0q-15 0-15-15l0 0q0-15 15-15Z" p-id="15724"></path></svg>