<?xml version="1.0" standalone="no"?><!DOCTYPE svg PUBLIC "-//W3C//DTD SVG 1.1//EN" "http://www.w3.org/Graphics/SVG/1.1/DTD/svg11.dtd"><svg t="1647215000388" class="icon" viewBox="0 0 1024 1024" version="1.1" xmlns="http://www.w3.org/2000/svg" p-id="9675" xmlns:xlink="http://www.w3.org/1999/xlink" width="200" height="200"><defs><style type="text/css"></style></defs><path d="M363.9 241.1v81.7h-81.6v-81.7h81.6z m375.6 0v81.7h-81.6v-81.7h81.6z m67.6 431.7H214.7V349.6h592.4v323.2zM341.9 429.9L295.4 476v58.4l104.4-104.5h-57.9z m148.4 0L327 592.4h57.5L546.9 430h-56.6z m147 0L474 592.4h59.7L695.6 430h-58.3v-0.1z m89.5 59.3L623.2 592.4h59.7l43.9-43.9v-59.3zM822 944H445.9v-81.7h212V699.9h81.6v162.4h82.1c22.3-0.1 40.3-18.1 40.4-40.4V202c-0.1-22.3-18.1-40.3-40.4-40.4H202c-22.3 0.1-40.3 18.1-40.4 40.4v620c0.1 22.3 18.1 40.3 40.4 40.4h80.3V699.9h82.1V944H202c-67.4-0.1-121.9-54.7-122-122V202c0.1-67.3 54.6-121.9 122-122h619.6c67.4 0.1 122.1 54.6 122.4 122v620c-0.1 67.3-54.6 121.9-122 122z" fill="#2c2c2c" p-id="9676"></path></svg>