<?xml version="1.0" standalone="no"?><!DOCTYPE svg PUBLIC "-//W3C//DTD SVG 1.1//EN" "http://www.w3.org/Graphics/SVG/1.1/DTD/svg11.dtd"><svg class="icon" width="200px" height="200.00px" viewBox="0 0 1024 1024" version="1.1" xmlns="http://www.w3.org/2000/svg"><path fill="#d81e06" d="M512 160c194.4 0 352 157.6 352 352s-157.6 352-352 352H256a96 96 0 0 1-96-96v-256C160 317.6 317.6 160 512 160z m0 64a288 288 0 0 0-288 288v256a32 32 0 0 0 32 32h256a288 288 0 0 0 0-576z m-160 240a48 48 0 1 1 0 96 48 48 0 0 1 0-96z m160 0a48 48 0 1 1 0 96 48 48 0 0 1 0-96z m160 0a48 48 0 1 1 0 96 48 48 0 0 1 0-96z" /></svg>